<svg xmlns="http://www.w3.org/2000/svg" width="800" height="600" viewBox="0 0 800 600" role="img" aria-labelledby="title desc">
  <title id="title">INSTALL guide illustration</title>
  <desc id="desc">YSim content preview illustration.</desc>
  <defs>
    <linearGradient id="g" x1="0" y1="0" x2="1" y2="1">
      <stop offset="0" stop-color="#effaf4"/>
      <stop offset="1" stop-color="#ffffff"/>
    </linearGradient>
  </defs>
  <rect width="800" height="600" rx="36" fill="url(#g)"/>
  <circle cx="660" cy="95" r="78" fill="#2fa66a" opacity=".18"/>
  <circle cx="110" cy="520" r="130" fill="#9fce3d" opacity=".14"/>
  <rect x="190" y="90" width="420" height="420" rx="38" fill="#ffffff" stroke="#dfe8e2" stroke-width="4"/>
  <rect x="250" y="145" width="300" height="60" rx="20" fill="#2fa66a" opacity=".16"/>
  <text x="400" y="184" text-anchor="middle" font-family="Arial, sans-serif" font-size="25" font-weight="700" letter-spacing="3" fill="#0f6b43">INSTALL</text>
  <rect x="255" y="245" width="130" height="130" rx="20" fill="#effaf4"/>
  <rect x="275" y="265" width="34" height="34" fill="#0f6b43"/>
  <rect x="331" y="265" width="34" height="34" fill="#0f6b43"/>
  <rect x="275" y="321" width="34" height="34" fill="#0f6b43"/>
  <path d="M326 320h39v35h-18v-17h-21z" fill="#0f6b43"/>
  <rect x="420" y="255" width="120" height="18" rx="9" fill="#bce9cf"/>
  <rect x="420" y="295" width="95" height="14" rx="7" fill="#dfe8e2"/>
  <rect x="420" y="330" width="110" height="14" rx="7" fill="#dfe8e2"/>
  <rect x="260" y="410" width="280" height="38" rx="19" fill="#2fa66a" opacity=".82"/>
  <circle cx="690" cy="475" r="58" fill="#ffffff" stroke="#2fa66a" stroke-width="5"/>
  <text x="690" y="488" text-anchor="middle" font-family="Arial, sans-serif" font-size="34" font-weight="700" fill="#0f6b43">QR</text>
</svg>
