<?xml version="1.0" encoding="utf-8" ?><svg xmlns="http://www.w3.org/2000/svg" xmlns:xlink="http://www.w3.org/1999/xlink" width="1584" height="672" viewBox="0 0 1584 672"><path fill="#404040" d="M1084.5 81.8568C1157.19 81.3977 1151.55 79.0062 1195.78 135.739L1262.67 221.793C1269.17 230.207 1275.69 238.827 1282.58 247.182C1291.73 258.277 1303.1 281.797 1320.18 267.805C1323.89 264.76 1329.22 257.122 1332.31 253.268C1338.72 245.249 1345.03 237.078 1351.35 228.993L1415.41 146.841C1427.36 131.423 1439.19 115.406 1451.86 100.77C1466.44 84.3431 1485.46 81.1973 1506.32 81.722C1517.54 82.0041 1533.83 80.6741 1534.97 96.7437C1535.84 108.987 1535.3 122.753 1535.3 135.158L1535.32 210.908L1535.29 457.593L1460.05 457.575L1459.79 310.521L1459.61 216.588C1428.45 254.087 1398.59 295.141 1367.67 333.061C1354.05 349.569 1341.9 367.574 1326.88 382.821C1318.86 390.957 1300.36 390.991 1292.47 382.931C1279.65 369.815 1268.18 353.876 1256.79 339.356L1197.73 263.996C1186.24 249.234 1171.9 229.824 1159.77 216.139C1160.39 224.199 1160.04 236.999 1160.03 245.443L1159.96 297.781L1160 457.595L1084.53 457.632L1084.5 81.8568Z"/><path fill="#404040" d="M566.953 82.2702C574.746 81.2963 589.869 81.6352 598.214 81.6332L652.708 81.651L845.27 81.5803C840.709 95.3535 828.006 143.882 819.52 151.462C815.362 155.176 807.999 157.025 802.583 157.769C786.035 160.043 762.301 158.452 745.177 158.431L629.355 158.337C613.21 158.327 594.338 157.339 578.61 159.489C541.722 164.532 542.249 229.793 580.841 232.627C599.126 233.969 617.065 233.429 635.44 233.478L758.067 233.465C786.763 233.55 810.49 239.813 831.671 260.918C872.79 301.89 871.629 388.873 830.834 429.645C805.347 455.117 775.326 457.73 741.34 457.58L462.09 457.599C485.58 376.971 469.716 382.9 555.627 382.956L686.988 383.019C708.753 383.035 729.324 383.312 751.729 382.459C787.76 381.087 792.135 325.389 763.756 312.118C752.466 306.839 729.924 308.463 716.545 308.491L618.364 308.516C599.001 308.515 568.346 309.637 550.54 306.011C536.256 303.103 522.823 296.976 511.262 288.097C489.465 271.318 476.303 243.968 473.358 217.002C466.084 150.407 496.262 90.9117 566.953 82.2702Z"/><defs><linearGradient id="gradient_0" gradientUnits="userSpaceOnUse" x1="233.80113" y1="455.89383" x2="238.71007" y2="108.69849"><stop offset="0" stop-color="#4A9134"/><stop offset="1" stop-color="#90BF38"/></linearGradient></defs><path fill="url(#gradient_0)" d="M327.767 113.161C351.691 78.7262 354.274 81.6753 395.293 81.6906L447.204 81.8217C431.612 105.114 414.303 127.43 398.632 150.588L285.408 308.89L285.406 457.591L202.514 457.605C201.62 409.266 202.519 357.833 202.532 309.218C194.938 296.848 177.961 274.927 169.018 262.555L109.126 179.421C99.7344 166.358 89.78 153.395 80.7788 140.101C66.824 121.964 52.2338 100.639 38.7206 81.9037C59.4769 81.5797 81.2049 81.9848 101.826 81.7183C134.863 81.2914 138.918 83.0282 156.908 109.6C160.257 113.927 162.891 117.81 165.927 122.371C172.245 131.09 178.777 139.9 184.653 148.903C190.346 155.817 196.819 165.28 201.891 172.768C215.358 192.65 231.164 212.451 243.954 232.619C251.867 221.404 259.698 210.132 267.446 198.803C269.833 195.338 277.841 183.464 280.362 180.843C283.337 176.208 285.544 173.104 288.944 168.771C292.952 162.557 298.667 153.98 303.403 148.322C305.881 144.029 312.721 134.752 315.794 130.331L327.767 113.161Z"/><path fill="#8CBE3A" d="M327.767 113.161C351.691 78.7262 354.274 81.6753 395.293 81.6906L447.204 81.8217C431.612 105.114 414.303 127.43 398.632 150.588C394.215 147.129 390.633 147.802 384.867 147.111C388.374 147.443 388.449 148.018 391.109 146.662L390.509 145.398C389.562 145.021 383.304 141.55 383.682 141.536C373.51 141.911 369.023 134.365 361.381 129.852C355.02 126.096 333.623 113.706 327.767 113.161Z"/><path fill="#8CBE3A" d="M38.7206 81.9037C59.4769 81.5797 81.2049 81.9848 101.826 81.7183C134.863 81.2914 138.918 83.0282 156.908 109.6C148.15 105.302 140.347 111.946 132.615 115.767C128.026 118.035 120.778 125.143 116.869 126.429C112.227 123.942 102.312 126.727 96.8674 127.595C91.1364 128.509 86.0007 135.183 81.3292 137.098C80.8875 138.496 80.8336 138.646 80.7788 140.101C66.824 121.964 52.2338 100.639 38.7206 81.9037Z"/><path fill="#8CBE3A" d="M165.927 122.371C172.245 131.09 178.777 139.9 184.653 148.903C182.397 148.746 177.485 148.672 176.085 148.595C170.239 148.274 150.723 149.9 146.828 146.594C144.882 139.09 162.935 132.152 165.927 122.371Z"/><path fill="#8CBE3A" d="M303.403 148.322C305.881 144.029 312.721 134.752 315.794 130.331C323.436 147.504 320.365 147.841 303.403 148.322Z"/><path fill="#8CBE3A" d="M288.944 168.771C288.115 175.571 289.202 180.815 281.038 181.187L280.362 180.843C283.337 176.208 285.544 173.104 288.944 168.771Z"/><path fill="#404040" d="M1008.91 138.266C1009.71 163.432 1008.84 191.867 1008.94 217.396L1009.1 457.573L933.453 457.611L932.564 457.527L931.655 456.265C930.877 445.667 931.591 425.67 931.574 414.101L931.58 323.088L931.523 246.211C931.476 231.708 928.784 197.564 937.305 186.533C953.811 165.164 993.079 159.943 1008.91 138.266Z"/><defs><linearGradient id="gradient_1" gradientUnits="userSpaceOnUse" x1="947.73798" y1="168.9894" x2="981.45593" y2="74.204277"><stop offset="0" stop-color="#73AC33"/><stop offset="1" stop-color="#9CCA43"/></linearGradient></defs><path fill="url(#gradient_1)" d="M954.472 82.1223C971.535 81.3584 991.972 81.881 1009.29 81.9193C1009.85 129.411 1005.14 125.049 965.138 146.22C954.52 151.944 940.33 158.865 931.906 167.118C930.817 147.787 931.104 123.362 932.206 103.838C932.874 92.013 942.936 84.3751 954.472 82.1223Z"/><path fill="#404040" d="M703.26 554.624C712.862 553.963 720.755 553.915 729.316 559.327C747.76 570.986 750.565 600.053 739.568 617.59C734.297 625.996 725.955 630.386 716.422 632.365C679.371 635.691 664.941 601.041 680.241 570.096C684.458 561.565 694.214 556.799 703.26 554.624ZM715.393 619.428C740.078 610.002 736.285 563.726 705.786 566.863C698.957 569.568 693.815 572.966 691.227 580.242C684.517 599.101 691.294 622.634 715.393 619.428Z"/><path fill="#404040" d="M433.435 554.662C441.521 554.027 451.53 554.213 458.254 559.115C484.95 578.574 480.411 625.089 445.676 632.412C436.438 632.937 426.742 632.744 419.178 626.896C393.782 607.258 398.797 560.489 433.435 554.662ZM444.59 619.45C448.151 618.059 451.712 616.682 453.994 613.528C466.649 596.04 461.551 564.881 435.071 566.835C413.845 574.77 411.373 606.98 431.227 618.201C434.868 620.259 440.049 619.821 444.191 619.486L444.59 619.45Z"/><path fill="#404040" d="M574.147 556.07L590.919 555.708C597.945 569.315 606.993 591.997 613.369 606.629C619.856 590.334 628.195 572.367 635.213 556.04L651.997 556.073C652.302 580.894 652.098 606.166 652.143 631.024L638.95 631.008L638.833 596.023L638.9 577.476C631.97 593.007 625.75 607.962 618.525 623.447L607.834 623.496C600.564 608.336 594.654 593.412 587.65 578.244C587.208 595.29 587.69 613.733 587.506 631.05L574.126 631.014C573.998 606.033 574.005 581.051 574.147 556.07Z"/><path fill="#404040" d="M1295.52 555.85C1316.26 555.553 1358.65 548.988 1350.45 586.841C1349.03 593.41 1343.79 597.249 1338.17 600.413C1343.15 610.642 1348.87 621.009 1354.25 631.076L1338.22 631.072C1335.47 628.039 1325.77 607.638 1323.34 602.633C1318.94 602.459 1313.93 602.55 1309.48 602.527L1309.48 631.003L1295.54 631.018L1295.52 555.85ZM1309.84 591.507C1317.68 591.617 1327.01 592.682 1333.51 588.201C1347.19 567.571 1322.8 567.287 1309.7 567.598C1309.68 575.033 1309.43 584.257 1309.84 591.507Z"/><path fill="#404040" d="M1015.25 555.652L1027.83 555.503C1039.39 570.483 1052.84 590.794 1063.98 606.591C1062.99 595.373 1063.81 568.3 1063.83 555.862L1077.55 555.701L1077.66 631.109L1065.18 630.996C1054.03 617.05 1039.38 595.45 1029.23 580.395C1029.39 597.128 1029.15 614.268 1029.1 631.032L1015.41 631.017C1014.96 605.898 1014.91 580.773 1015.25 555.652Z"/><path fill="#404040" d="M1412.18 555.956L1424.8 555.667C1435.41 569.804 1450.35 591.768 1460.34 606.557C1460.06 589.954 1460.32 572.708 1460.34 556.057L1474.06 556.046L1474.08 631.21L1461.43 631.142C1450.33 617.183 1436.51 595.927 1425.68 580.687C1425.81 597.475 1425.74 614.264 1425.46 631.051L1411.87 631.017L1412.18 555.956Z"/><path fill="#404040" d="M318.834 556.021C323 555.909 327.166 555.821 331.333 555.757C335.792 560.821 341.379 569.45 345.331 575.162C352.548 585.738 359.926 596.202 367.463 606.551L367.351 555.99C371.699 555.813 376.502 555.856 380.891 555.8L381.026 630.775C377.954 631.479 371.593 631.143 368.182 631.072L332.758 580.41L332.528 631.083L318.927 631.121L318.834 556.021Z"/><path fill="#404040" d="M955.807 555.595L969.064 555.663C977.918 580.963 987.421 605.949 996.351 631.197L980.83 631.141C978.937 624.849 976.496 618.089 974.374 611.822L966.479 611.725L946.689 611.77C944.782 617.963 942.195 624.885 940.048 631.069L925.214 631.069C931.792 612.414 938.484 593.8 945.29 575.227C947.376 569.545 949.924 561.747 952.647 556.326C952.87 555.883 955.06 555.71 955.807 555.595ZM950.566 600.282L962.411 600.334L970.8 600.494C969.443 596.566 961.842 572.471 960.205 571.225C956.826 580.899 953.418 590.431 950.566 600.282Z"/><path fill="#404040" d="M1503.03 555.616L1512.14 555.607L1512.1 586.29L1546.24 586.273L1546.26 555.897L1560.5 555.66C1560.99 576.98 1561.44 609.501 1560.48 630.413C1558.56 631.366 1554.45 631.071 1552.1 631.069C1549.76 631.156 1548.88 631.327 1546.71 630.435C1545.73 625.669 1546.23 604.731 1546.28 598.517L1512.03 598.483L1512.14 631.149L1498.26 631.108C1498.22 622.803 1497.39 558.061 1498.91 555.903L1503.03 555.616Z"/><path fill="#404040" d="M844.335 555.81L858.526 555.69L858.561 586.319L892.527 586.285L892.536 556.006L906.54 555.992C906.613 564.456 907.335 628.619 905.59 631.026L892.544 631.036L892.503 598.683C881.19 598.571 869.875 598.558 858.561 598.644L858.48 631.01L844.47 631.069C844.038 606.091 844.561 580.849 844.335 555.81Z"/><path fill="#404040" d="M1101.75 555.821L1115.97 555.587C1115.82 565.731 1115.95 576.133 1115.95 586.299L1149.85 586.281C1149.73 576.149 1149.73 566.016 1149.84 555.884L1163.76 555.763C1164.31 579.729 1164.1 606.557 1163.79 630.568L1162.55 631.056L1150.03 631.041C1149.85 620.206 1149.85 609.369 1150.06 598.535L1115.92 598.562L1116.06 631.133L1102.04 631.133C1102.78 607.642 1101.54 580.016 1101.75 555.821Z"/><path fill="#404040" d="M53.4602 555.916L67.6028 555.659C67.3274 567.05 67.5081 578.97 67.5165 590.402C76.1683 581.048 88.8262 563.771 97.975 556.034L114.34 555.83L85.9025 588.408L102.657 612.123L115.814 631.146L98.7649 630.999C91.1708 621.677 83.1775 608.921 75.6186 598.865C72.7268 601.844 70.1508 604.882 67.4447 608.025L67.394 631.031L53.4457 630.997L53.4602 555.916Z"/><path fill="#404040" d="M134.144 555.698L184.367 555.651L184.182 568.212L148.496 568.25L148.492 586.862L182.16 586.752L182.37 598.5L148.477 598.47L148.491 618.693L184.417 618.618L184.516 631.076L134.148 631.027C134.727 606.41 134.233 580.413 134.144 555.698Z"/><path fill="#404040" d="M201.972 555.868C221.426 555.433 242.052 555.739 261.599 555.7C261.769 559.607 261.643 564.237 261.625 568.207L238.9 568.296L238.838 608.203L238.815 631.007L224.488 631.018L224.418 568.255C217.039 568.146 209.447 568.227 202.048 568.217L201.972 555.868Z"/><path fill="#404040" d="M1217.4 555.918C1236.47 555.378 1257.4 555.792 1276.55 555.875L1276.53 568.133L1254.08 568.278C1254.56 580.238 1254.22 594.514 1254.26 606.656L1254.22 631.041L1239.81 631.017L1239.82 568.186L1217.44 568.192L1217.4 555.918Z"/><path fill="#404040" d="M768.14 555.867L782.229 555.658C782.571 580.518 782.242 606.123 782.231 631.042L768.069 631.062L768.14 555.867Z"/><path fill="#404040" d="M497.272 556.013C501.687 556.087 506.73 555.881 511.196 555.804L511.237 631.041L497.178 631.032C496.851 606.239 497.199 580.849 497.272 556.013Z"/><path fill="#404040" d="M1373.71 555.848C1377.89 555.695 1383.26 555.949 1387.53 556.033C1387.69 581.032 1387.68 606.031 1387.48 631.03L1373.68 631.085L1373.71 555.848Z"/><path fill="#404040" d="M153.01 534.366L164.967 534.352C169.714 539.793 173.702 543.863 178.8 548.909L166.768 548.978L161.478 543.431C160.874 542.567 160.332 542.373 159.42 541.863C156.821 542.856 154.219 546.72 152.356 549.041L139.668 549.103C144.151 544.223 148.598 539.31 153.01 534.366Z"/><path fill="#404040" d="M433.276 534.658L444.611 534.437C449.175 538.565 454.521 544.478 458.822 549.021L451.737 549.05C447.144 549.049 446.118 548.629 442.901 545.4C441.611 543.933 441.359 543.604 439.691 542.605C436.479 543.38 434.524 546.249 431.941 548.886L419.945 548.958C423.491 544.96 429.374 537.729 433.276 534.658Z"/><path fill="#404040" d="M941.306 532.676L957.191 532.585C960.757 537.409 964.682 543.512 968.116 548.546C964.334 548.869 960.548 548.717 956.751 548.649C952.022 544.392 945.817 537.438 941.306 532.676Z"/><path fill="#404040" d="M1360.68 532.748L1375.75 532.505C1379.42 536.675 1384.85 544.003 1388.41 548.542L1376.15 548.566C1372.31 545.347 1364.5 536.749 1360.68 532.748Z"/><path fill="#404040" d="M707.112 639.099C710.781 637.221 715.279 638.628 717.224 642.262C719.169 645.896 717.845 650.418 714.247 652.429C711.86 653.764 708.938 653.705 706.606 652.277C704.274 650.849 702.895 648.273 703 645.54C703.105 642.808 704.677 640.345 707.112 639.099Z"/><path fill="#404040" d="M460.931 525.327L473.844 525.495L461.538 537.798C459.155 539.539 455.847 540.507 453.039 539.22L452.583 537.769C453.506 533.921 458.194 528.283 460.931 525.327Z"/><path fill="#404040" d="M180.887 525.295L193.171 525.553L181.343 537.725C179.227 539.539 173.652 539.215 170.786 539.252C173.773 534.91 177.498 529.156 180.887 525.295Z"/></svg>